HIERARCHY
ROOT newVegas:Hips
{
	OFFSET 0.000000 96.479958 0.000000
	CHANNELS 6 Xposition Yposition Zposition Xrotation Yrotation Zrotation
	JOINT newVegas:Pelvis
	{
		OFFSET 0.000000 0.000000 0.000000
		CHANNELS 3 Xrotation Yrotation Zrotation
		JOINT newVegas:LeftUpLeg
		{
			OFFSET 18.735201 -5.666702 -4.541200
			CHANNELS 3 Xrotation Yrotation Zrotation
			JOINT newVegas:LeftLeg
			{
				OFFSET -0.021200 -31.938179 0.493100
				CHANNELS 3 Xrotation Yrotation Zrotation
				JOINT newVegas:LeftFoot
				{
					OFFSET 0.021200 -31.938179 -4.336299
					CHANNELS 3 Xrotation Yrotation Zrotation
					JOINT newVegas:LeftToeBase
					{
						OFFSET 0.943001 -26.722000 15.023500
						CHANNELS 3 Xrotation Yrotation Zrotation
						End Site
						{
							OFFSET 0.000000 30.670183 0.000000
						}
					}
				}
				JOINT newVegas:Left_PantLeg
				{
					OFFSET 0.663870 -9.044666 -1.108900
					CHANNELS 3 Xrotation Yrotation Zrotation
					End Site
					{
						OFFSET 1.415995 20.635357 0.000000
					}
				}
			}
		}
		JOINT newVegas:RightUpLeg
		{
			OFFSET -18.735201 -5.666702 -4.541200
			CHANNELS 3 Xrotation Yrotation Zrotation
			JOINT newVegas:RightLeg
			{
				OFFSET 0.018946 -31.938133 0.493100
				CHANNELS 3 Xrotation Yrotation Zrotation
				JOINT newVegas:RightFoot
				{
					OFFSET -0.018946 -31.938126 -4.336299
					CHANNELS 3 Xrotation Yrotation Zrotation
					JOINT newVegas:RightToeBase
					{
						OFFSET -0.943001 -26.722004 15.023500
						CHANNELS 3 Xrotation Yrotation Zrotation
						End Site
						{
							OFFSET 0.000000 30.670187 0.000000
						}
					}
				}
				JOINT newVegas:Right_PantLeg
				{
					OFFSET -0.661674 -9.044716 -1.108900
					CHANNELS 3 Xrotation Yrotation Zrotation
					End Site
					{
						OFFSET -1.415958 20.635269 0.000000
					}
				}
			}
		}
	}
	JOINT newVegas:Spine
	{
		OFFSET 0.000000 10.199997 -0.299500
		CHANNELS 3 Xrotation Yrotation Zrotation
		JOINT newVegas:Spine1
		{
			OFFSET 0.000000 11.900002 -1.516600
			CHANNELS 3 Xrotation Yrotation Zrotation
			JOINT newVegas:Spine2
			{
				OFFSET 0.000000 13.600006 -2.842500
				CHANNELS 3 Xrotation Yrotation Zrotation
				JOINT newVegas:Neck
				{
					OFFSET 0.000000 9.624100 -2.890100
					CHANNELS 3 Xrotation Yrotation Zrotation
					JOINT newVegas:Head
					{
						OFFSET 0.000000 14.068802 -1.351900
						CHANNELS 3 Xrotation Yrotation Zrotation
						JOINT newVegas:Hair_Back
						{
							OFFSET 0.000000 3.231903 -17.524799
							CHANNELS 3 Xrotation Yrotation Zrotation
							End Site
							{
								OFFSET 0.000000 19.849884 0.000000
							}
						}
						JOINT newVegas:Hair_Front
						{
							OFFSET 0.000000 31.260406 4.573800
							CHANNELS 3 Xrotation Yrotation Zrotation
							JOINT newVegas:Hair_Front1
							{
								OFFSET 0.000000 2.284103 11.993300
								CHANNELS 3 Xrotation Yrotation Zrotation
								JOINT newVegas:Hair_Front2
								{
									OFFSET 0.000000 2.284103 11.993300
									CHANNELS 3 Xrotation Yrotation Zrotation
									End Site
									{
										OFFSET 0.000000 12.208862 0.000000
									}
								}
							}
						}
						JOINT newVegas:Jowel
						{
							OFFSET 0.000000 -7.458206 6.864100
							CHANNELS 3 Xrotation Yrotation Zrotation
							End Site
							{
								OFFSET 0.000000 19.849884 0.000000
							}
						}
					}
				}
				JOINT newVegas:LeftShoulder
				{
					OFFSET 15.263000 10.923401 -0.547700
					CHANNELS 3 Xrotation Yrotation Zrotation
					JOINT newVegas:LeftArm
					{
						OFFSET 25.438599 -2.830597 -13.032500
						CHANNELS 3 Xrotation Yrotation Zrotation
						JOINT newVegas:LeftForeArm
						{
							OFFSET 29.960503 0.000000 0.000000
							CHANNELS 3 Xrotation Yrotation Zrotation
							JOINT newVegas:LeftHand
							{
								OFFSET 27.849251 0.000000 0.000000
								CHANNELS 3 Xrotation Yrotation Zrotation
								JOINT newVegas:LeftHandThumb1
								{
									OFFSET 4.487587 -3.305161 6.305391
									CHANNELS 3 Xrotation Yrotation Zrotation
									JOINT newVegas:LeftHandThumb2
									{
										OFFSET 5.480453 -3.164139 3.164143
										CHANNELS 3 Xrotation Yrotation Zrotation
										JOINT newVegas:LeftHandThumb3
										{
											OFFSET 5.159721 -2.978973 2.978967
											CHANNELS 3 Xrotation Yrotation Zrotation
											End Site
											{
												OFFSET 2.494507 5.926697 1.738678
											}
										}
									}
								}
								JOINT newVegas:LeftHandIndex1
								{
									OFFSET 18.578728 -0.527832 5.208049
									CHANNELS 3 Xrotation Yrotation Zrotation
									JOINT newVegas:LeftHandIndex2
									{
										OFFSET 3.192009 0.000000 0.000000
										CHANNELS 3 Xrotation Yrotation Zrotation
										JOINT newVegas:LeftHandIndex3
										{
											OFFSET 3.835129 0.000000 0.000000
											CHANNELS 3 Xrotation Yrotation Zrotation
											End Site
											{
												OFFSET -0.034599 3.816971 0.371180
											}
										}
									}
								}
								JOINT newVegas:LeftHandMiddle1
								{
									OFFSET 18.476105 0.000000 0.000000
									CHANNELS 3 Xrotation Yrotation Zrotation
									JOINT newVegas:LeftHandMiddle2
									{
										OFFSET 3.324875 0.000000 0.000000
										CHANNELS 3 Xrotation Yrotation Zrotation
										JOINT newVegas:LeftHandMiddle3
										{
											OFFSET 4.596550 0.000000 0.000000
											CHANNELS 3 Xrotation Yrotation Zrotation
											End Site
											{
												OFFSET 0.057701 4.578827 0.399218
											}
										}
									}
								}
								JOINT newVegas:LeftHandRing1
								{
									OFFSET 17.732719 0.121887 -4.201567
									CHANNELS 3 Xrotation Yrotation Zrotation
									JOINT newVegas:LeftHandRing2
									{
										OFFSET 2.733170 0.000000 0.000000
										CHANNELS 3 Xrotation Yrotation Zrotation
										JOINT newVegas:LeftHandRing3
										{
											OFFSET 3.178268 0.000000 0.000000
											CHANNELS 3 Xrotation Yrotation Zrotation
											End Site
											{
												OFFSET 0.119102 3.170624 0.185394
											}
										}
									}
								}
								JOINT newVegas:LeftHandPinky1
								{
									OFFSET 15.989624 -0.606689 -7.535461
									CHANNELS 3 Xrotation Yrotation Zrotation
									JOINT newVegas:LeftHandPinky2
									{
										OFFSET 2.538986 0.000000 0.000000
										CHANNELS 3 Xrotation Yrotation Zrotation
										JOINT newVegas:LeftHandPinky3
										{
											OFFSET 2.593102 0.000000 0.000000
											CHANNELS 3 Xrotation Yrotation Zrotation
											End Site
											{
												OFFSET -0.150902 2.584198 0.152708
											}
										}
									}
								}
							}
							JOINT newVegas:Left_Sleeve
							{
								OFFSET 0.267448 -0.649796 0.577675
								CHANNELS 3 Xrotation Yrotation Zrotation
								End Site
								{
									OFFSET 0.000000 15.991241 0.000000
								}
							}
							JOINT newVegas:Left_CapeC
							{
								OFFSET 15.715958 -8.608795 -6.935905
								CHANNELS 3 Xrotation Yrotation Zrotation
								JOINT newVegas:Left_CapeC1
								{
									OFFSET 0.000000 -8.688499 0.000000
									CHANNELS 3 Xrotation Yrotation Zrotation
									End Site
									{
										OFFSET 0.000000 8.688499 0.000000
									}
								}
							}
						}
						JOINT newVegas:Left_CapeB
						{
							OFFSET 26.118385 -8.608795 -7.079235
							CHANNELS 3 Xrotation Yrotation Zrotation
							JOINT newVegas:Left_CapeB1
							{
								OFFSET 0.000000 -8.688499 0.000000
								CHANNELS 3 Xrotation Yrotation Zrotation
								End Site
								{
									OFFSET 0.000000 8.688499 0.000000
								}
							}
						}
						JOINT newVegas:Left_CapeA
						{
							OFFSET 5.115639 -8.608795 -10.395809
							CHANNELS 3 Xrotation Yrotation Zrotation
							JOINT newVegas:Left_CapeA1
							{
								OFFSET 0.000000 -8.688499 0.000000
								CHANNELS 3 Xrotation Yrotation Zrotation
								End Site
								{
									OFFSET 0.000000 8.688499 0.000000
								}
							}
						}
					}
				}
				JOINT newVegas:RightShoulder
				{
					OFFSET -15.263000 10.923401 -0.547700
					CHANNELS 3 Xrotation Yrotation Zrotation
					JOINT newVegas:RightArm
					{
						OFFSET -25.438599 -2.830597 -13.032500
						CHANNELS 3 Xrotation Yrotation Zrotation
						JOINT newVegas:RightForeArm
						{
							OFFSET -29.960503 0.000000 0.000000
							CHANNELS 3 Xrotation Yrotation Zrotation
							JOINT newVegas:RightHand
							{
								OFFSET -27.849251 0.000000 0.000000
								CHANNELS 3 Xrotation Yrotation Zrotation
								JOINT newVegas:RightHandThumb1
								{
									OFFSET -4.487587 -3.305161 6.305391
									CHANNELS 3 Xrotation Yrotation Zrotation
									JOINT newVegas:RightHandThumb2
									{
										OFFSET -5.480453 -3.164139 3.164143
										CHANNELS 3 Xrotation Yrotation Zrotation
										JOINT newVegas:RightHandThumb3
										{
											OFFSET -5.159721 -2.978973 2.978967
											CHANNELS 3 Xrotation Yrotation Zrotation
											End Site
											{
												OFFSET -2.494507 5.926697 1.738678
											}
										}
									}
								}
								JOINT newVegas:RightHandIndex1
								{
									OFFSET -18.578728 -0.527832 5.208049
									CHANNELS 3 Xrotation Yrotation Zrotation
									JOINT newVegas:RightHandIndex2
									{
										OFFSET -3.192009 0.000000 0.000000
										CHANNELS 3 Xrotation Yrotation Zrotation
										JOINT newVegas:RightHandIndex3
										{
											OFFSET -3.835129 0.000000 0.000000
											CHANNELS 3 Xrotation Yrotation Zrotation
											End Site
											{
												OFFSET 0.034599 3.816971 0.371180
											}
										}
									}
								}
								JOINT newVegas:RightHandMiddle1
								{
									OFFSET -18.476105 0.000000 0.000000
									CHANNELS 3 Xrotation Yrotation Zrotation
									JOINT newVegas:RightHandMiddle2
									{
										OFFSET -3.324875 0.000000 0.000000
										CHANNELS 3 Xrotation Yrotation Zrotation
										JOINT newVegas:RightHandMiddle3
										{
											OFFSET -4.596550 0.000000 0.000000
											CHANNELS 3 Xrotation Yrotation Zrotation
											End Site
											{
												OFFSET -0.057701 4.578827 0.399218
											}
										}
									}
								}
								JOINT newVegas:RightHandRing1
								{
									OFFSET -17.732719 0.121887 -4.201567
									CHANNELS 3 Xrotation Yrotation Zrotation
									JOINT newVegas:RightHandRing2
									{
										OFFSET -2.733170 0.000000 0.000000
										CHANNELS 3 Xrotation Yrotation Zrotation
										JOINT newVegas:RightHandRing3
										{
											OFFSET -3.178268 0.000000 0.000000
											CHANNELS 3 Xrotation Yrotation Zrotation
											End Site
											{
												OFFSET -0.119102 3.170624 0.185394
											}
										}
									}
								}
								JOINT newVegas:RightHandPinky1
								{
									OFFSET -15.989624 -0.606689 -7.535461
									CHANNELS 3 Xrotation Yrotation Zrotation
									JOINT newVegas:RightHandPinky2
									{
										OFFSET -2.538986 0.000000 0.000000
										CHANNELS 3 Xrotation Yrotation Zrotation
										JOINT newVegas:RightHandPinky3
										{
											OFFSET -2.593102 0.000000 0.000000
											CHANNELS 3 Xrotation Yrotation Zrotation
											End Site
											{
												OFFSET 0.150902 2.584198 0.152708
											}
										}
									}
								}
							}
							JOINT newVegas:Right_CapeC
							{
								OFFSET -15.715958 -8.608795 -6.935905
								CHANNELS 3 Xrotation Yrotation Zrotation
								JOINT newVegas:Right_CapeC1
								{
									OFFSET 0.000000 -8.688499 0.000000
									CHANNELS 3 Xrotation Yrotation Zrotation
									End Site
									{
										OFFSET 0.000000 8.688499 0.000000
									}
								}
							}
							JOINT newVegas:Right_Sleeve
							{
								OFFSET -0.267448 -0.649994 0.577675
								CHANNELS 3 Xrotation Yrotation Zrotation
								End Site
								{
									OFFSET 0.000000 15.991302 0.000000
								}
							}
						}
						JOINT newVegas:Right_CapeA
						{
							OFFSET -5.115540 -8.608795 -10.395824
							CHANNELS 3 Xrotation Yrotation Zrotation
							JOINT newVegas:Right_CapeA1
							{
								OFFSET 0.000000 -8.688499 0.000000
								CHANNELS 3 Xrotation Yrotation Zrotation
								End Site
								{
									OFFSET 0.000000 8.688499 0.000000
								}
							}
						}
						JOINT newVegas:Right_CapeB
						{
							OFFSET -26.118187 -8.608795 -7.079266
							CHANNELS 3 Xrotation Yrotation Zrotation
							JOINT newVegas:Right_CapeB1
							{
								OFFSET 0.000000 -8.688499 0.000000
								CHANNELS 3 Xrotation Yrotation Zrotation
								End Site
								{
									OFFSET 0.000000 8.688499 0.000000
								}
							}
						}
					}
				}
				JOINT newVegas:Left_Collar
				{
					OFFSET 18.625099 8.655502 8.828100
					CHANNELS 3 Xrotation Yrotation Zrotation
					JOINT newVegas:Left_Collar1
					{
						OFFSET 14.783401 10.540405 -1.259500
						CHANNELS 3 Xrotation Yrotation Zrotation
						End Site
						{
							OFFSET 0.000000 18.199875 0.000000
						}
					}
				}
				JOINT newVegas:Collar_Back
				{
					OFFSET 0.000000 15.630707 -20.132601
					CHANNELS 3 Xrotation Yrotation Zrotation
					End Site
					{
						OFFSET 0.000000 22.523010 0.000000
					}
				}
				JOINT newVegas:Left_Peck
				{
					OFFSET 17.239599 -5.132599 25.482599
					CHANNELS 3 Xrotation Yrotation Zrotation
					End Site
					{
						OFFSET 0.000000 22.523010 0.000000
					}
				}
				JOINT newVegas:Right_Peck
				{
					OFFSET -17.239599 -5.132202 25.482599
					CHANNELS 3 Xrotation Yrotation Zrotation
					End Site
					{
						OFFSET 0.000000 22.523010 0.000000
					}
				}
				JOINT newVegas:Right_Collar
				{
					OFFSET -18.625099 8.655792 8.828100
					CHANNELS 3 Xrotation Yrotation Zrotation
					JOINT newVegas:Right_Collar1
					{
						OFFSET -14.783401 10.539993 -1.259500
						CHANNELS 3 Xrotation Yrotation Zrotation
						End Site
						{
							OFFSET 0.000000 18.199631 0.000000
						}
					}
				}
			}
		}
		JOINT newVegas:Belly
		{
			OFFSET 0.000000 -6.540398 9.014299
			CHANNELS 3 Xrotation Yrotation Zrotation
			End Site
			{
				OFFSET 0.000000 11.566666 0.000000
			}
		}
	}
	JOINT newVegas:ElvisFacialAnim_Joint
	{
		OFFSET 1.000000 -95.330101 -8.825800
		CHANNELS 3 Xrotation Yrotation Zrotation
		End Site
		{
			OFFSET 0.000000 35.315800 0.000000
		}
	}
}
MOTION
Frames: 4
Frame Time: 0.016667
-5.505624 82.323540 10.401338 3.881275 -66.435208 1.643868 0.000000 0.000002 0.000000 -20.546305 50.513569 33.671388 59.276726 11.174954 -4.494029 -39.588439 6.723411 4.076069 0.000000 0.000000 0.000001 0.000001 -0.000001 -0.000000 -18.288293 4.307118 -32.271800 32.938440 4.152142 -0.010645 -18.206183 -3.389494 29.572732 -0.000000 0.000001 0.000000 0.000001 0.000000 -0.000000 7.956946 -7.875953 7.011525 -0.190745 -11.250284 6.028634 -11.447046 -11.562245 5.338309 1.005911 7.981494 1.488745 1.005912 7.981507 1.488745 -0.000000 0.000000 -0.000002 1.005908 7.981510 1.488747 1.005981 7.981482 1.488737 0.000000 -0.000002 -0.000002 -0.000000 0.000000 0.000000 7.036031 -21.717439 28.304178 -17.434029 -22.035022 -5.063778 -0.024461 -18.120268 -4.741182 -3.552987 -6.370909 13.626878 42.313046 -18.874760 16.581741 -1.124737 11.542630 -8.102159 0.000003 -0.000000 -0.000003 -2.169663 -7.707827 -52.286433 -1.077020 -2.178642 -57.035816 0.000000 -0.000000 -0.000001 0.593493 2.455620 -56.484387 -1.132163 -2.997389 -65.080242 0.000001 0.000001 0.000000 1.303212 5.891401 -65.858228 -2.589234 -2.454439 -70.907978 -0.000001 -0.000001 -0.000001 0.029071 4.541979 -74.162392 -2.684745 -2.230711 -68.744659 0.000000 -0.000002 -0.000001 0.000001 -0.000001 -0.000002 0.000001 -0.000001 -0.000002 0.000000 -0.000001 -0.000002 -0.000001 -0.000001 -0.000002 -0.000001 -0.000002 -0.000003 -0.000001 -0.000001 -0.000002 -0.000001 -0.000001 -0.000002 0.930708 -15.187709 4.991302 -54.595225 -4.695023 -21.803116 -1.943013 39.705457 7.057015 -51.183457 -15.861535 -14.387252 55.149519 18.649572 -29.698294 -0.442557 -14.180528 7.313145 0.000001 -0.000002 -0.000004 5.673374 7.585010 36.844165 1.050469 3.824486 68.900257 0.000000 0.000000 0.000000 -0.125700 1.886098 45.000756 -1.169030 3.204701 68.417684 0.000001 0.000000 0.000000 -5.312015 1.216653 58.508814 -0.745206 1.667584 48.011254 0.000001 0.000002 0.000000 -7.756794 -9.376480 47.264007 -0.526059 1.541605 45.600515 0.000001 -0.000000 -0.000001 0.000002 0.000001 0.000000 -0.000001 0.000001 -0.000001 0.000002 0.000001 0.000000 0.000001 -0.000001 -0.000000 0.000001 0.000000 -0.000001 0.000001 -0.000001 -0.000000 0.000001 -0.000000 -0.000001 -0.000000 -0.000000 0.000000 -0.000000 -0.000000 0.000000 -0.000000 -0.000000 0.000000 -0.000000 -0.000000 0.000000 -0.000000 -0.000000 0.000000 -0.000000 -0.000000 0.000000 -0.000000 -0.000000 0.000000 -0.000000 0.000001 0.000000 0.000000 0.000002 0.000000 
-5.916619 82.881699 11.378205 0.141969 -63.559719 -1.631918 -0.000000 -0.000001 0.000000 -17.314219 50.608263 30.999657 56.820661 11.701799 -3.974385 -39.950354 5.714743 6.121552 0.000001 -0.000000 -0.000000 -0.000004 0.000001 -0.000000 -13.922342 3.738471 -32.094550 34.906939 1.904370 1.106018 -22.042398 -4.722193 25.823175 -0.000000 0.000002 0.000001 -0.000001 -0.000001 -0.000003 7.681069 -7.895472 6.979570 -0.769985 -11.249930 5.778991 -12.026595 -11.514010 5.093315 1.393003 7.404257 1.639949 1.393005 7.404254 1.639940 0.000000 0.000000 0.000000 1.393002 7.404235 1.639952 1.393065 7.404238 1.639948 0.000000 -0.000001 -0.000000 0.000000 0.000000 0.000000 7.857573 -21.919607 30.974457 -21.326275 -25.568333 -2.826539 -0.025388 -17.497930 -4.137774 -2.765586 -6.958306 14.864476 42.927585 -18.897848 16.453203 -0.945121 11.655979 -8.273438 -0.000001 -0.000002 -0.000003 -2.215071 -7.742167 -53.603871 -1.119914 -2.204951 -58.146131 0.000000 -0.000003 -0.000000 0.537330 2.419225 -57.792744 -1.191444 -3.024557 -66.361162 -0.000000 0.000003 -0.000000 1.239037 5.863631 -67.162261 -2.655542 -2.476373 -72.221348 0.000001 0.000001 -0.000000 -0.038010 4.523890 -75.467641 -2.752221 -2.255911 -70.057715 -0.000000 -0.000002 0.000000 -0.000001 -0.000001 -0.000001 -0.000001 -0.000001 -0.000001 -0.000002 -0.000000 -0.000001 -0.000001 0.000002 -0.000001 -0.000000 0.000001 0.000001 -0.000001 0.000002 -0.000001 -0.000001 0.000001 -0.000000 0.146580 -15.459973 2.713257 -57.506122 -5.072672 -23.534930 -0.738061 40.895174 7.076517 -50.027324 -13.816074 -14.796357 55.149526 18.649570 -29.698287 -0.442560 -14.180535 7.313154 0.000001 -0.000001 0.000001 5.673374 7.585010 36.844161 1.050467 3.824484 68.900257 0.000000 -0.000000 0.000000 -0.125701 1.886098 45.000753 -1.169030 3.204702 68.417691 -0.000001 0.000001 -0.000000 -5.312014 1.216652 58.508821 -0.745210 1.667584 48.011254 0.000001 -0.000001 0.000001 -7.756792 -9.376477 47.264011 -0.526055 1.541608 45.600518 0.000002 0.000001 0.000002 0.000001 0.000000 -0.000003 0.000001 0.000000 -0.000003 0.000001 0.000000 -0.000002 0.000001 0.000001 0.000000 0.000001 0.000002 0.000001 0.000001 0.000001 0.000000 0.000001 0.000002 0.000001 -0.000000 -0.000000 -0.000000 -0.000000 -0.000000 -0.000000 -0.000000 -0.000000 -0.000000 -0.000000 -0.000000 -0.000000 -0.000000 -0.000000 -0.000000 -0.000000 -0.000000 -0.000000 -0.000000 -0.000000 -0.000000 -0.000000 0.000000 -0.000000 -0.000000 -0.000001 0.000000 
-6.294072 83.420792 12.448469 -2.798064 -60.438691 -3.817671 -0.000000 0.000000 -0.000000 -13.566854 50.406605 28.800469 54.493466 10.629256 -3.980194 -39.664008 5.544262 6.605836 0.000000 -0.000000 -0.000001 0.000002 -0.000000 -0.000000 -9.285309 3.011987 -32.259277 36.459263 -0.877212 3.200775 -24.716054 -6.176852 21.815365 0.000000 0.000001 -0.000000 -0.000002 0.000001 0.000001 7.319991 -7.908487 6.851418 -1.527754 -11.209400 5.298611 -12.782775 -11.382097 4.629935 1.930089 6.827266 1.723333 1.930089 6.827297 1.723334 0.000000 0.000000 0.000000 1.930082 6.827271 1.723332 1.930170 6.827277 1.723323 -0.000000 0.000001 0.000000 0.000000 0.000000 -0.000001 8.584867 -21.755780 33.610159 -27.651765 -28.364623 -2.405170 -0.026666 -18.419772 -2.358923 -5.291958 -5.926812 14.285836 43.353977 -18.915835 16.360972 -0.820366 11.735178 -8.393326 0.000003 -0.000000 -0.000001 -2.247290 -7.764468 -54.521992 -1.150289 -2.222071 -58.919923 0.000001 0.000000 0.000001 0.497573 2.394589 -58.704479 -1.233051 -3.040922 -67.253786 -0.000000 -0.000001 -0.000001 1.193967 5.845114 -68.070908 -2.702022 -2.490733 -73.136539 -0.000000 0.000001 -0.000000 -0.085030 4.512124 -76.377224 -2.799553 -2.272608 -70.972714 0.000001 0.000002 -0.000000 0.000001 0.000000 -0.000001 0.000001 0.000000 -0.000001 0.000000 0.000000 -0.000001 0.000001 0.000000 0.000000 0.000001 -0.000001 -0.000003 0.000001 0.000000 0.000000 -0.000000 0.000001 0.000001 -0.667861 -15.637523 0.241172 -60.363545 -5.259261 -25.202683 0.541720 42.083230 7.030222 -48.692845 -11.716998 -15.338694 55.149526 18.649572 -29.698287 -0.442560 -14.180535 7.313142 -0.000003 -0.000005 -0.000003 5.673373 7.585012 36.844168 1.050467 3.824485 68.900257 -0.000002 -0.000001 -0.000001 -0.125699 1.886097 45.000759 -1.169028 3.204701 68.417691 -0.000004 -0.000001 -0.000000 -5.312014 1.216652 58.508814 -0.745209 1.667583 48.011257 -0.000001 0.000001 0.000000 -7.756793 -9.376475 47.264007 -0.526057 1.541608 45.600518 -0.000000 -0.000000 -0.000000 0.000001 -0.000001 0.000001 -0.000001 -0.000000 0.000000 0.000001 -0.000001 -0.000000 0.000001 0.000001 -0.000001 0.000002 0.000002 -0.000000 0.000001 0.000001 -0.000001 0.000002 0.000002 0.000001 -0.000000 0.000000 0.000000 -0.000000 0.000000 0.000000 -0.000000 0.000000 0.000000 -0.000000 0.000000 0.000000 -0.000000 0.000000 0.000000 -0.000000 0.000000 0.000000 -0.000000 0.000000 0.000000 -0.000000 -0.000001 -0.000000 -0.000000 0.000000 -0.000000 
-6.606842 83.863235 13.780375 -4.337150 -57.366055 -4.714531 -0.000000 -0.000000 0.000000 -9.701823 50.035562 27.048625 52.112827 8.624878 -4.324641 -39.123863 6.037243 5.422914 0.000000 -0.000001 -0.000000 -0.000002 -0.000001 0.000001 -5.279451 2.180061 -32.674232 37.451348 -3.832712 6.468582 -25.299092 -7.170569 17.146539 -0.000001 0.000001 0.000001 0.000001 -0.000003 0.000001 6.842462 -7.937026 6.716596 -2.535070 -11.161999 4.689575 -13.787173 -11.218755 4.041875 2.523938 6.263478 1.765152 2.523943 6.263488 1.765155 -0.000000 -0.000001 -0.000000 2.523927 6.263484 1.765158 2.523939 6.263500 1.765152 0.000001 -0.000000 -0.000000 -0.000000 -0.000001 -0.000000 8.478569 -20.502872 36.126267 -34.534751 -32.188421 -4.144997 -0.027687 -17.857396 -0.308375 -9.297709 -5.515039 15.170701 43.570579 -18.924895 16.312484 -0.757236 11.775691 -8.454603 0.000002 -0.000000 0.000002 -2.263422 -7.775081 -54.989542 -1.165428 -2.230478 -59.314100 -0.000001 -0.000000 0.000003 0.478514 2.383197 -59.168932 -1.253589 -3.047964 -67.708471 0.000001 -0.000001 0.000000 1.171026 5.836685 -68.533708 -2.726099 -2.497398 -73.602829 0.000000 -0.000001 -0.000000 -0.109018 4.506873 -76.840461 -2.824295 -2.279955 -71.438834 0.000000 -0.000003 -0.000000 -0.000001 0.000000 0.000000 -0.000001 0.000000 0.000000 -0.000002 0.000000 0.000000 0.000001 0.000000 -0.000000 0.000001 -0.000001 -0.000002 0.000001 0.000000 -0.000000 -0.000000 -0.000000 0.000000 -1.505392 -15.764135 -2.396702 -63.043370 -5.187513 -26.544794 1.665751 43.271847 6.930262 -47.203181 -9.686935 -15.881255 55.149533 18.649570 -29.698287 -0.442561 -14.180531 7.313149 -0.000000 -0.000003 0.000001 5.673372 7.585010 36.844168 1.050466 3.824488 68.900250 -0.000002 -0.000001 -0.000001 -0.125702 1.886097 45.000759 -1.169031 3.204698 68.417684 -0.000002 0.000001 0.000000 -5.312017 1.216650 58.508821 -0.745205 1.667590 48.011257 -0.000000 -0.000001 0.000001 -7.756794 -9.376481 47.264011 -0.526057 1.541605 45.600515 0.000002 -0.000004 0.000001 0.000003 0.000000 -0.000001 0.000001 0.000000 -0.000001 0.000003 -0.000000 -0.000001 -0.000001 0.000000 -0.000002 -0.000001 0.000001 -0.000002 -0.000001 0.000000 -0.000002 -0.000001 0.000001 -0.000000 -0.000000 0.000000 0.000000 -0.000000 0.000000 0.000000 -0.000000 0.000000 0.000000 -0.000000 0.000000 0.000000 -0.000000 0.000000 0.000000 -0.000000 0.000000 0.000000 -0.000000 0.000000 0.000000 -0.000000 0.000003 -0.000000 -0.000000 -0.000000 0.000000 
